HIERARCHY
ROOT mixamorig:Hips
{
	OFFSET -0.000008 104.274872 1.554316
	CHANNELS 6 Xposition Yposition Zposition Xrotation Yrotation Zrotation
	JOINT mixamorig:Spine
	{
		OFFSET -0.000005 10.181595 0.131519
		CHANNELS 6 Xposition Yposition Zposition Xrotation Yrotation Zrotation
		JOINT mixamorig:Spine1
		{
			OFFSET -0.000000 9.893959 -1.470707
			CHANNELS 6 Xposition Yposition Zposition Xrotation Yrotation Zrotation
			JOINT mixamorig:Spine2
			{
				OFFSET -0.000000 9.220757 -1.370641
				CHANNELS 6 Xposition Yposition Zposition Xrotation Yrotation Zrotation
				JOINT mixamorig:Neck
				{
					OFFSET 0.000001 16.740417 -2.049036
					CHANNELS 6 Xposition Yposition Zposition Xrotation Yrotation Zrotation
					JOINT mixamorig:Head
					{
						OFFSET 0.000000 9.617874 1.685006
						CHANNELS 6 Xposition Yposition Zposition Xrotation Yrotation Zrotation
						JOINT mixamorig:HeadTop_End
						{
							OFFSET 0.000002 22.037354 7.501101
							CHANNELS 6 Xposition Yposition Zposition Xrotation Yrotation Zrotation
							End Site
							{
								OFFSET 0.000168 2310.654297 -282.823242
							}
						}
					}
				}
				JOINT mixamorig:RightShoulder
				{
					OFFSET -4.569970 11.014908 -2.160885
					CHANNELS 6 Xposition Yposition Zposition Xrotation Yrotation Zrotation
					JOINT mixamorig:RightArm
					{
						OFFSET -10.592851 -0.524811 -2.232101
						CHANNELS 6 Xposition Yposition Zposition Xrotation Yrotation Zrotation
						JOINT mixamorig:RightForeArm
						{
							OFFSET -27.841511 0.000031 -0.000004
							CHANNELS 6 Xposition Yposition Zposition Xrotation Yrotation Zrotation
							JOINT mixamorig:RightHand
							{
								OFFSET -28.328831 -0.000015 0.000015
								CHANNELS 6 Xposition Yposition Zposition Xrotation Yrotation Zrotation
								JOINT mixamorig:RightHandThumb1
								{
									OFFSET -2.464806 -1.573990 2.681852
									CHANNELS 6 Xposition Yposition Zposition Xrotation Yrotation Zrotation
									JOINT mixamorig:RightHandThumb2
									{
										OFFSET -3.215179 -1.872803 1.924282
										CHANNELS 6 Xposition Yposition Zposition Xrotation Yrotation Zrotation
										JOINT mixamorig:RightHandThumb3
										{
											OFFSET -2.654831 -1.527969 1.512609
											CHANNELS 6 Xposition Yposition Zposition Xrotation Yrotation Zrotation
											JOINT mixamorig:RightHandThumb4
											{
												OFFSET -2.018814 -1.152008 1.108052
												CHANNELS 6 Xposition Yposition Zposition Xrotation Yrotation Zrotation
												End Site
												{
													OFFSET -188.809540 -114.533607 132.431396
												}
											}
										}
									}
								}
								JOINT mixamorig:RightHandIndex1
								{
									OFFSET -9.108284 -0.517868 2.259835
									CHANNELS 6 Xposition Yposition Zposition Xrotation Yrotation Zrotation
									JOINT mixamorig:RightHandIndex2
									{
										OFFSET -3.699989 0.000000 0.001215
										CHANNELS 6 Xposition Yposition Zposition Xrotation Yrotation Zrotation
										JOINT mixamorig:RightHandIndex3
										{
											OFFSET -2.850006 0.000031 -0.000522
											CHANNELS 6 Xposition Yposition Zposition Xrotation Yrotation Zrotation
											JOINT mixamorig:RightHandIndex4
											{
												OFFSET -2.772186 -0.000015 -0.000020
												CHANNELS 6 Xposition Yposition Zposition Xrotation Yrotation Zrotation
												End Site
												{
													OFFSET -277.218445 0.000000 -0.050231
												}
											}
										}
									}
								}
								JOINT mixamorig:RightHandMiddle1
								{
									OFFSET -9.532516 -0.000031 -0.000023
									CHANNELS 6 Xposition Yposition Zposition Xrotation Yrotation Zrotation
									JOINT mixamorig:RightHandMiddle2
									{
										OFFSET -3.700005 -0.000015 0.003713
										CHANNELS 6 Xposition Yposition Zposition Xrotation Yrotation Zrotation
										JOINT mixamorig:RightHandMiddle3
										{
											OFFSET -2.949974 0.000015 -0.002054
											CHANNELS 6 Xposition Yposition Zposition Xrotation Yrotation Zrotation
											JOINT mixamorig:RightHandMiddle4
											{
												OFFSET -2.946640 0.000000 -0.000156
												CHANNELS 6 Xposition Yposition Zposition Xrotation Yrotation Zrotation
												End Site
												{
													OFFSET -294.664337 0.000000 -0.113670
												}
											}
										}
									}
								}
								JOINT mixamorig:RightHandRing1
								{
									OFFSET -9.103600 -0.043076 -1.865134
									CHANNELS 6 Xposition Yposition Zposition Xrotation Yrotation Zrotation
									JOINT mixamorig:RightHandRing2
									{
										OFFSET -3.379288 0.000000 -0.001055
										CHANNELS 6 Xposition Yposition Zposition Xrotation Yrotation Zrotation
										JOINT mixamorig:RightHandRing3
										{
											OFFSET -2.889687 -0.000015 0.000379
											CHANNELS 6 Xposition Yposition Zposition Xrotation Yrotation Zrotation
											JOINT mixamorig:RightHandRing4
											{
												OFFSET -2.638809 -0.000015 0.000941
												CHANNELS 6 Xposition Yposition Zposition Xrotation Yrotation Zrotation
												End Site
												{
													OFFSET -263.880371 0.000000 0.516020
												}
											}
										}
									}
								}
								JOINT mixamorig:RightHandPinky1
								{
									OFFSET -8.076683 -0.486710 -3.806280
									CHANNELS 6 Xposition Yposition Zposition Xrotation Yrotation Zrotation
									JOINT mixamorig:RightHandPinky2
									{
										OFFSET -3.600014 -0.000015 -0.003747
										CHANNELS 6 Xposition Yposition Zposition Xrotation Yrotation Zrotation
										JOINT mixamorig:RightHandPinky3
										{
											OFFSET -2.099983 0.000000 -0.005739
											CHANNELS 6 Xposition Yposition Zposition Xrotation Yrotation Zrotation
											JOINT mixamorig:RightHandPinky4
											{
												OFFSET -2.115768 -0.000031 -0.003680
												CHANNELS 6 Xposition Yposition Zposition Xrotation Yrotation Zrotation
												End Site
												{
													OFFSET -211.577087 0.000000 -0.350686
												}
											}
										}
									}
								}
							}
						}
					}
				}
				JOINT mixamorig:LeftShoulder
				{
					OFFSET 4.570447 11.014725 -2.160855
					CHANNELS 6 Xposition Yposition Zposition Xrotation Yrotation Zrotation
					JOINT mixamorig:LeftArm
					{
						OFFSET 10.592371 -0.524597 -2.232119
						CHANNELS 6 Xposition Yposition Zposition Xrotation Yrotation Zrotation
						JOINT mixamorig:LeftForeArm
						{
							OFFSET 27.841532 -0.000031 0.000026
							CHANNELS 6 Xposition Yposition Zposition Xrotation Yrotation Zrotation
							JOINT mixamorig:LeftHand
							{
								OFFSET 28.328846 -0.000061 0.000022
								CHANNELS 6 Xposition Yposition Zposition Xrotation Yrotation Zrotation
								JOINT mixamorig:LeftHandThumb1
								{
									OFFSET 2.466141 -1.576172 2.681732
									CHANNELS 6 Xposition Yposition Zposition Xrotation Yrotation Zrotation
									JOINT mixamorig:LeftHandThumb2
									{
										OFFSET 3.217812 -1.872070 1.916482
										CHANNELS 6 Xposition Yposition Zposition Xrotation Yrotation Zrotation
										JOINT mixamorig:LeftHandThumb3
										{
											OFFSET 2.656029 -1.528778 1.514513
											CHANNELS 6 Xposition Yposition Zposition Xrotation Yrotation Zrotation
											JOINT mixamorig:LeftHandThumb4
											{
												OFFSET 2.020889 -1.154053 1.115139
												CHANNELS 6 Xposition Yposition Zposition Xrotation Yrotation Zrotation
												End Site
												{
													OFFSET 190.885437 -115.081749 130.048782
												}
											}
										}
									}
								}
								JOINT mixamorig:LeftHandIndex1
								{
									OFFSET 9.109314 -0.518021 2.259871
									CHANNELS 6 Xposition Yposition Zposition Xrotation Yrotation Zrotation
									JOINT mixamorig:LeftHandIndex2
									{
										OFFSET 3.699989 0.000000 -0.000322
										CHANNELS 6 Xposition Yposition Zposition Xrotation Yrotation Zrotation
										JOINT mixamorig:LeftHandIndex3
										{
											OFFSET 2.850006 0.000000 0.000352
											CHANNELS 6 Xposition Yposition Zposition Xrotation Yrotation Zrotation
											JOINT mixamorig:LeftHandIndex4
											{
												OFFSET 2.774864 -0.000031 -0.000027
												CHANNELS 6 Xposition Yposition Zposition Xrotation Yrotation Zrotation
												End Site
												{
													OFFSET 277.486267 0.000000 -0.009857
												}
											}
										}
									}
								}
								JOINT mixamorig:LeftHandMiddle1
								{
									OFFSET 9.533394 0.000061 0.000044
									CHANNELS 6 Xposition Yposition Zposition Xrotation Yrotation Zrotation
									JOINT mixamorig:LeftHandMiddle2
									{
										OFFSET 3.699989 -0.000015 -0.000231
										CHANNELS 6 Xposition Yposition Zposition Xrotation Yrotation Zrotation
										JOINT mixamorig:LeftHandMiddle3
										{
											OFFSET 2.949997 -0.000015 -0.000059
											CHANNELS 6 Xposition Yposition Zposition Xrotation Yrotation Zrotation
											JOINT mixamorig:LeftHandMiddle4
											{
												OFFSET 2.952896 0.000031 0.000063
												CHANNELS 6 Xposition Yposition Zposition Xrotation Yrotation Zrotation
												End Site
												{
													OFFSET 295.289337 0.000000 0.022810
												}
											}
										}
									}
								}
								JOINT mixamorig:LeftHandRing1
								{
									OFFSET 9.104523 -0.042999 -1.865074
									CHANNELS 6 Xposition Yposition Zposition Xrotation Yrotation Zrotation
									JOINT mixamorig:LeftHandRing2
									{
										OFFSET 3.150009 -0.000031 0.000043
										CHANNELS 6 Xposition Yposition Zposition Xrotation Yrotation Zrotation
										JOINT mixamorig:LeftHandRing3
										{
											OFFSET 2.949982 -0.000015 0.000040
											CHANNELS 6 Xposition Yposition Zposition Xrotation Yrotation Zrotation
											JOINT mixamorig:LeftHandRing4
											{
												OFFSET 2.644348 0.000000 0.000057
												CHANNELS 6 Xposition Yposition Zposition Xrotation Yrotation Zrotation
												End Site
												{
													OFFSET 264.434631 0.000000 0.012105
												}
											}
										}
									}
								}
								JOINT mixamorig:LeftHandPinky1
								{
									OFFSET 8.077789 -0.486847 -3.806259
									CHANNELS 6 Xposition Yposition Zposition Xrotation Yrotation Zrotation
									JOINT mixamorig:LeftHandPinky2
									{
										OFFSET 3.599953 0.000031 0.014727
										CHANNELS 6 Xposition Yposition Zposition Xrotation Yrotation Zrotation
										JOINT mixamorig:LeftHandPinky3
										{
											OFFSET 2.100021 0.000015 0.007705
											CHANNELS 6 Xposition Yposition Zposition Xrotation Yrotation Zrotation
											JOINT mixamorig:LeftHandPinky4
											{
												OFFSET 2.125504 0.000031 0.007517
												CHANNELS 6 Xposition Yposition Zposition Xrotation Yrotation Zrotation
												End Site
												{
													OFFSET 212.550781 0.000000 0.625752
												}
											}
										}
									}
								}
							}
						}
					}
				}
			}
		}
	}
	JOINT mixamorig:RightUpLeg
	{
		OFFSET -8.207787 -6.751648 -1.599560
		CHANNELS 6 Xposition Yposition Zposition Xrotation Yrotation Zrotation
		JOINT mixamorig:RightLeg
		{
			OFFSET -0.000002 -44.370117 0.345942
			CHANNELS 6 Xposition Yposition Zposition Xrotation Yrotation Zrotation
			JOINT mixamorig:RightFoot
			{
				OFFSET 0.000003 -44.423679 -3.043532
				CHANNELS 6 Xposition Yposition Zposition Xrotation Yrotation Zrotation
				JOINT mixamorig:RightToeBase
				{
					OFFSET -0.000002 -8.728671 10.710558
					CHANNELS 6 Xposition Yposition Zposition Xrotation Yrotation Zrotation
					JOINT mixamorig:RightToe_End
					{
						OFFSET -0.000001 -0.000679 9.278119
						CHANNELS 6 Xposition Yposition Zposition Xrotation Yrotation Zrotation
						End Site
						{
							OFFSET 0.000000 -0.067690 927.812134
						}
					}
				}
			}
		}
	}
	JOINT mixamorig:LeftUpLeg
	{
		OFFSET 8.207793 -6.751686 -1.599556
		CHANNELS 6 Xposition Yposition Zposition Xrotation Yrotation Zrotation
		JOINT mixamorig:LeftLeg
		{
			OFFSET -0.000004 -44.370014 0.346954
			CHANNELS 6 Xposition Yposition Zposition Xrotation Yrotation Zrotation
			JOINT mixamorig:LeftFoot
			{
				OFFSET -0.000001 -44.423672 -3.044401
				CHANNELS 6 Xposition Yposition Zposition Xrotation Yrotation Zrotation
				JOINT mixamorig:LeftToeBase
				{
					OFFSET -0.000002 -8.728669 10.710558
					CHANNELS 6 Xposition Yposition Zposition Xrotation Yrotation Zrotation
					JOINT mixamorig:LeftToe_End
					{
						OFFSET -0.000003 -0.000679 9.278133
						CHANNELS 6 Xposition Yposition Zposition Xrotation Yrotation Zrotation
						End Site
						{
							OFFSET 0.000000 -0.068021 927.813477
						}
					}
				}
			}
		}
	}
}
MOTION
Frames: 3
Frame Time: 0.033333
0.000006 104.270477 1.554256 0.000010 0.000003 -0.000113 -0.000005 10.181587 0.131522 0.000001 -0.000003 0.000084 -0.000000 9.893967 -1.470711 0.000001 0.000000 -0.000000 -0.000000 9.220802 -1.370642 0.000000 -0.000000 -0.000000 0.000001 16.740433 -2.049030 0.000000 -0.000000 -0.000000 0.000000 9.617859 1.685014 0.000000 0.000000 0.000000 0.000002 22.037384 7.501101 0.000000 -0.000000 0.000000 -4.569968 11.014880 -2.160881 0.000008 0.000001 -0.000038 -10.592878 -0.524756 -2.231914 72.608674 27.631107 -20.482158 -27.841539 0.000014 0.000543 -58.829075 109.467736 77.129932 -28.328850 0.000020 0.000023 -0.000320 -0.000046 0.000006 -2.464394 -1.573819 2.682334 -43.724395 -158.283637 -0.529930 -3.215267 -1.872533 1.924632 151.275959 33.038045 17.160698 -2.654958 -1.527883 1.513079 147.944315 26.695017 -37.518212 -2.018838 -1.152006 1.108062 -0.000005 -0.000002 0.000004 -9.108383 -0.517559 2.260112 97.491805 17.872380 -20.381240 -3.700065 0.000312 0.001496 91.034325 14.480001 -14.716645 -2.850084 0.000362 -0.000268 91.257563 11.372957 -11.622697 -2.772166 -0.000017 -0.000018 -0.000003 0.000001 0.000001 -9.532588 0.000271 0.000244 94.752523 15.889656 -17.399685 -3.700068 0.000342 0.003964 93.698434 10.616532 -11.221308 -2.950042 0.000344 -0.001794 94.937963 10.717493 -11.669329 -2.946634 0.000001 -0.000154 0.000001 0.000000 0.000001 -9.103678 -0.042750 -1.864881 93.661114 16.456849 -17.479952 -3.379304 0.000342 -0.000814 93.124452 5.312992 -5.627732 -2.889720 0.000364 0.000630 96.358922 3.660059 -4.138791 -2.638803 -0.000018 0.000943 -0.000002 0.000000 0.000001 -8.076745 -0.486374 -3.806016 90.665113 15.757957 -15.789241 -3.600005 0.000307 -0.003510 93.302447 3.902148 -3.780963 -2.100009 0.000332 -0.005486 93.719259 2.030472 -1.945133 -2.115772 -0.000040 -0.003680 0.000002 0.000001 -0.000005 4.570446 11.014691 -2.160851 -0.000018 0.000010 -0.000021 10.592420 -0.524469 -2.232378 73.348889 -19.057508 14.250312 27.841805 0.000068 -0.000222 98.817476 -72.539648 81.150967 28.328831 -0.000029 0.000026 0.000021 -0.000088 0.000000 2.465985 -1.576166 2.681909 -38.879455 156.404789 -9.324272 3.217706 -1.871682 1.916366 147.830798 -33.574010 -28.407580 2.656085 -1.528582 1.514420 144.493198 -27.628969 32.795710 2.020891 -1.154081 1.115148 -0.000003 -0.000000 0.000003 9.109358 -0.517833 2.259747 91.394222 -13.234148 13.544862 3.700043 0.000143 -0.000474 85.861768 -15.361017 14.317441 2.850062 0.000186 0.000220 84.371599 -14.250001 12.925349 2.774890 -0.000031 -0.000025 -0.000002 0.000001 -0.000001 9.533452 0.000225 -0.000104 88.454720 -12.347362 12.012896 3.700071 0.000184 -0.000366 91.713717 -15.772459 16.242246 2.950091 0.000172 -0.000186 92.122381 -20.447730 21.205639 2.952852 -0.000032 0.000070 -0.000003 -0.000002 -0.000001 9.104569 -0.042825 -1.865228 88.623433 -13.019910 12.715202 3.150070 0.000212 -0.000086 96.471545 -14.755498 16.502896 2.950047 0.000162 -0.000054 98.311605 -17.423336 20.103834 2.644325 0.000032 0.000058 0.000003 -0.000000 -0.000000 8.077826 -0.486722 -3.806406 74.652567 -15.694258 12.448652 3.599990 0.000168 0.014563 77.270702 -13.074080 10.875927 2.100044 0.000183 0.007551 82.273529 -12.914490 11.718906 2.125503 -0.000015 0.007512 0.000000 -0.000001 0.000000 -8.207786 -6.751667 -1.599560 -0.077001 -0.000003 0.000080 -0.000002 -44.370110 0.345938 0.153719 -0.000000 -0.000000 0.000000 -44.423679 -3.043532 -0.076700 0.000000 -0.000002 -0.000006 -8.728667 10.710559 -0.000009 -0.000000 -0.000000 -0.000001 -0.000679 9.278123 0.000000 -0.000000 -0.000000 8.207792 -6.751710 -1.599556 -0.074518 -0.000003 0.000081 -0.000002 -44.370014 0.346960 0.148822 0.000002 0.000000 -0.000001 -44.423664 -3.044403 -0.074314 0.000000 -0.000002 -0.000004 -8.728671 10.710558 0.000007 -0.000000 -0.000000 0.000000 -0.000680 9.278137 -0.000000 0.000000 -0.000001 
0.000006 104.270477 1.554256 0.000010 0.000003 -0.000113 -0.000005 10.181587 0.131522 0.000001 -0.000003 0.000084 -0.000000 9.893967 -1.470711 0.000001 0.000000 -0.000000 -0.000000 9.220802 -1.370642 0.000000 -0.000000 -0.000000 0.000001 16.740433 -2.049030 0.000000 -0.000000 -0.000000 0.000000 9.617859 1.685014 0.000000 0.000000 0.000000 0.000002 22.037384 7.501101 0.000000 -0.000000 0.000000 -4.569968 11.014880 -2.160881 0.000008 0.000001 -0.000038 -10.592869 -0.524785 -2.231890 73.923670 33.132804 -25.235611 -27.841530 0.000001 0.000551 -55.954931 105.933154 70.297031 -28.328821 0.000022 0.000031 -0.000326 -0.000043 0.000007 -2.464390 -1.573872 2.682345 -38.929387 -153.137035 8.522610 -3.215249 -1.872525 1.924606 146.801597 33.298289 28.908950 -2.654950 -1.527864 1.513049 146.538553 27.707407 -29.456881 -2.018812 -1.152008 1.108056 -0.000006 0.000002 0.000005 -9.108364 -0.517566 2.260119 95.299915 17.009807 -18.684452 -3.700076 0.000308 0.001487 90.527034 14.721341 -14.831737 -2.850084 0.000356 -0.000290 89.750373 12.319630 -12.265543 -2.772173 -0.000017 -0.000019 -0.000001 -0.000001 -0.000002 -9.532564 0.000276 0.000244 92.895094 15.368733 -16.303873 -3.700087 0.000348 0.003958 92.591274 12.278625 -12.743081 -2.950067 0.000334 -0.001781 95.482650 12.764780 -14.028520 -2.946626 -0.000014 -0.000150 0.000000 0.000000 0.000000 -9.103690 -0.042754 -1.864877 93.441933 17.664930 -18.692933 -3.379315 0.000325 -0.000822 91.632821 7.774325 -8.015802 -2.889732 0.000360 0.000649 100.056309 5.888198 -7.075218 -2.638805 -0.000017 0.000942 -0.000001 0.000000 -0.000002 -8.076734 -0.486390 -3.805998 89.832308 18.279811 -18.075558 -3.600039 0.000289 -0.003511 91.687223 6.375877 -6.210585 -2.100007 0.000332 -0.005470 94.981895 3.262073 -3.327625 -2.115760 -0.000044 -0.003673 -0.000003 -0.000001 -0.000000 4.570446 11.014691 -2.160851 -0.000018 0.000010 -0.000021 10.592392 -0.524487 -2.232335 73.194049 -10.007338 7.439877 27.841829 0.000053 -0.000176 100.638883 -73.005474 83.465567 28.328840 -0.000029 0.000020 0.000022 -0.000089 -0.000000 2.466115 -1.576156 2.681891 -19.441592 155.911649 -48.031676 3.217741 -1.871683 1.916381 156.231261 -34.518758 -19.056438 2.656103 -1.528639 1.514457 147.236954 -25.952024 44.988530 2.020891 -1.154054 1.115143 0.000001 -0.000000 0.000003 9.109382 -0.517831 2.259735 91.318967 -18.925189 19.344721 3.700035 0.000179 -0.000475 86.558475 -12.340723 11.641777 2.850064 0.000199 0.000200 85.850178 -9.833960 9.148165 2.774885 -0.000015 -0.000028 -0.000001 -0.000001 0.000001 9.533464 0.000236 -0.000096 90.088966 -16.901206 16.918141 3.700046 0.000213 -0.000394 91.897053 -10.253257 10.593864 2.950057 0.000193 -0.000208 93.198560 -11.834384 12.512028 2.952875 -0.000014 0.000060 0.000000 -0.000001 -0.000001 9.104593 -0.042833 -1.865229 88.449652 -17.194911 16.744332 3.150035 0.000222 -0.000109 96.249482 -10.140012 11.305834 2.950018 0.000207 -0.000073 98.676713 -10.257441 11.932247 2.644325 0.000046 0.000062 -0.000001 0.000001 -0.000000 8.077844 -0.486707 -3.806395 78.624240 -17.795838 15.101994 3.600017 0.000193 0.014575 80.651721 -13.699771 12.080903 2.100029 0.000191 0.007543 83.178283 -11.112007 10.292958 2.125488 -0.000015 0.007514 -0.000000 -0.000002 0.000000 -8.207786 -6.751667 -1.599560 -0.077001 -0.000003 0.000080 -0.000002 -44.370110 0.345938 0.153719 -0.000000 -0.000000 0.000000 -44.423679 -3.043532 -0.076700 0.000000 -0.000002 -0.000006 -8.728667 10.710559 -0.000009 -0.000000 -0.000000 -0.000001 -0.000679 9.278123 0.000000 -0.000000 -0.000000 8.207792 -6.751710 -1.599556 -0.074518 -0.000003 0.000081 -0.000002 -44.370014 0.346960 0.148822 0.000002 0.000000 -0.000001 -44.423664 -3.044403 -0.074314 0.000000 -0.000002 -0.000004 -8.728671 10.710558 0.000007 -0.000000 -0.000000 0.000000 -0.000680 9.278137 -0.000000 0.000000 -0.000001 
0.000006 104.270477 1.554256 0.000010 0.000003 -0.000113 -0.000005 10.181587 0.131522 0.000001 -0.000003 0.000084 -0.000000 9.893967 -1.470711 0.000001 0.000000 -0.000000 -0.000000 9.220802 -1.370642 0.000000 -0.000000 -0.000000 0.000001 16.740433 -2.049030 0.000000 -0.000000 -0.000000 0.000000 9.617859 1.685014 0.000000 0.000000 0.000000 0.000002 22.037384 7.501101 0.000000 -0.000000 0.000000 -4.569968 11.014880 -2.160881 0.000008 0.000001 -0.000038 -10.592856 -0.524803 -2.231837 74.105790 42.412053 -32.654588 -27.841526 0.000015 0.000528 -54.344803 102.626031 65.321983 -28.328825 0.000020 0.000025 -0.000322 -0.000044 0.000006 -2.464378 -1.573859 2.682343 -39.058225 -152.665943 8.091279 -3.215241 -1.872488 1.924611 146.880035 33.456302 30.077756 -2.654958 -1.527868 1.513056 147.537332 27.603081 -29.134421 -2.018834 -1.151996 1.108054 -0.000003 0.000006 0.000005 -9.108372 -0.517558 2.260127 96.940014 17.542946 -19.818699 -3.700050 0.000308 0.001492 91.771323 14.684584 -15.115832 -2.850102 0.000358 -0.000283 91.008569 11.638299 -11.842589 -2.772163 -0.000001 -0.000017 0.000003 0.000001 -0.000000 -9.532577 0.000275 0.000245 93.120743 15.600541 -16.612043 -3.700064 0.000311 0.003971 92.964988 11.722235 -12.241242 -2.950066 0.000345 -0.001785 95.518181 11.901641 -13.089036 -2.946624 0.000001 -0.000151 0.000000 -0.000001 -0.000000 -9.103693 -0.042762 -1.864868 93.266274 17.498940 -18.461450 -3.379327 0.000338 -0.000820 92.879924 7.344268 -7.739596 -2.889736 0.000361 0.000662 101.152069 5.254180 -6.443066 -2.638795 -0.000003 0.000942 -0.000002 -0.000000 0.000004 -8.076730 -0.486380 -3.806015 89.904516 17.501011 -17.321449 -3.600048 0.000299 -0.003498 92.806725 6.199536 -6.148719 -2.099996 0.000334 -0.005472 96.621147 3.100350 -3.243689 -2.115792 -0.000052 -0.003678 0.000001 0.000000 -0.000006 4.570446 11.014691 -2.160851 -0.000018 0.000010 -0.000021 10.592422 -0.524477 -2.232377 72.020581 -20.190743 14.746906 27.841831 0.000032 -0.000195 103.620322 -75.294755 88.881265 28.328825 -0.000029 0.000021 0.000020 -0.000089 -0.000000 2.466173 -1.576157 2.681880 -12.580311 156.618942 -60.351374 3.217763 -1.871697 1.916381 159.531253 -33.265057 -8.926884 2.656102 -1.528610 1.514458 147.388119 -25.733084 46.667892 2.020895 -1.154074 1.115141 -0.000001 0.000002 0.000001 9.109374 -0.517855 2.259737 91.930931 -19.426624 20.066112 3.700048 0.000159 -0.000453 87.911966 -12.509543 12.081368 2.850013 0.000197 0.000192 86.928118 -9.680074 9.175532 2.774887 -0.000045 -0.000027 0.000003 -0.000001 0.000000 9.533481 0.000218 -0.000074 90.879601 -17.509810 17.767293 3.700034 0.000205 -0.000381 92.509687 -10.136131 10.584876 2.950061 0.000207 -0.000211 93.653737 -11.429296 12.180012 2.952852 -0.000014 0.000062 0.000004 0.000001 -0.000001 9.104585 -0.042837 -1.865209 89.221245 -17.413128 17.183528 3.150047 0.000234 -0.000096 96.366511 -10.373207 11.589087 2.950037 0.000193 -0.000070 98.562054 -10.169065 11.805899 2.644317 0.000031 0.000057 0.000001 0.000000 0.000000 8.077839 -0.486717 -3.806405 80.110339 -17.726175 15.441135 3.600022 0.000182 0.014556 82.141597 -14.137832 12.785330 2.100056 0.000196 0.007534 84.303495 -11.361439 10.724548 2.125511 -0.000000 0.007518 -0.000000 -0.000000 -0.000000 -8.207786 -6.751667 -1.599560 -0.077001 -0.000003 0.000080 -0.000002 -44.370110 0.345938 0.153719 -0.000000 -0.000000 0.000000 -44.423679 -3.043532 -0.076700 0.000000 -0.000002 -0.000006 -8.728667 10.710559 -0.000009 -0.000000 -0.000000 -0.000001 -0.000679 9.278123 0.000000 -0.000000 -0.000000 8.207792 -6.751710 -1.599556 -0.074518 -0.000003 0.000081 -0.000002 -44.370014 0.346960 0.148822 0.000002 0.000000 -0.000001 -44.423664 -3.044403 -0.074314 0.000000 -0.000002 -0.000004 -8.728671 10.710558 0.000007 -0.000000 -0.000000 0.000000 -0.000680 9.278137 -0.000000 0.000000 -0.000001 
